<?xml version="1.0" encoding="iso-8859-1"?>
<!-- Uploaded to: SVG Repo, www.svgrepo.com, Generator: SVG Repo Mixer Tools -->
<svg fill="#000000" height="800px" width="800px" version="1.1" id="Layer_1" xmlns="http://www.w3.org/2000/svg" xmlns:xlink="http://www.w3.org/1999/xlink" 
	 viewBox="0 0 512 512" xml:space="preserve">
<g>
	<g>
		<path d="M512,255.336c0-35.8-37.73-67.574-103.859-87.846c15.518-67.397,6.867-115.955-24.143-133.864
			c-31.007-17.898-77.385-1.106-127.998,46.025c-50.606-47.136-96.982-63.925-128.001-46.025
			c-13.892,8.022-23.566,22.722-28.255,42.717c-13.797,2.536-24.289,14.645-24.289,29.165c0,13.908,9.624,25.604,22.56,28.796
			c1.244,10.544,3.202,21.652,5.847,33.184C37.731,187.761,0,219.535,0,255.336c0,35.794,37.728,67.565,103.858,87.835
			C88.35,410.572,97,459.132,127.999,477.034c8.017,4.628,17.179,6.935,27.264,6.935c10.557,0,22.126-2.539,34.437-7.585
			c5.393,5.541,12.921,8.993,21.246,8.993c16.354,0,29.661-13.306,29.661-29.661c0-3.448-0.598-6.756-1.684-9.836
			c5.675-4.594,11.385-9.563,17.079-14.864c37.335,34.768,72.36,53.026,100.616,53.023c10.049,0,19.248-2.31,27.382-7.005
			c31.007-17.906,39.658-66.462,24.144-133.852c16.41-5.036,31.254-10.863,44.298-17.39c5.25,4.701,12.177,7.566,19.762,7.566
			c16.354,0,29.661-13.306,29.661-29.661c0-4.678-1.093-9.105-3.03-13.044C507.57,279.434,512,267.583,512,255.336z M375.174,48.912
			c23.026,13.297,28.929,56.504,15.953,113.785c-22.938-5.923-47.836-10.243-74.184-12.896
			c-15.459-21.494-31.658-40.895-48.278-57.814C311.784,52.116,352.153,35.628,375.174,48.912z M161.992,309.616
			c6.325,10.948,12.942,21.636,19.763,31.957c-19.926-2.569-38.866-6.152-56.564-10.725c4.883-17.596,11.244-35.789,18.996-54.349
			C149.75,287.646,155.702,298.731,161.992,309.616z M125.19,179.812c17.699-4.575,36.64-8.158,56.564-10.726
			c-6.821,10.323-13.439,21.013-19.764,31.96c-6.292,10.897-12.244,21.984-17.803,33.123
			C136.431,215.597,130.07,197.4,125.19,179.812z M177.274,300.788c-8.607-14.896-16.567-30.169-23.713-45.452
			c7.141-15.271,15.101-30.546,23.713-45.462c8.687-15.036,17.933-29.567,27.51-43.272c33.484-2.884,68.934-2.885,102.443,0
			c9.576,13.705,18.822,28.235,27.508,43.27c8.611,14.909,16.57,30.185,23.714,45.465c-7.151,15.291-15.109,30.563-23.713,45.451
			c-8.686,15.037-17.933,29.567-27.509,43.272c-33.51,2.885-68.96,2.884-102.444,0C195.207,330.355,185.961,315.823,177.274,300.788
			z M350.019,309.618c6.288-10.882,12.241-21.966,17.804-33.117c7.745,18.546,14.102,36.74,18.987,54.347
			c-17.686,4.574-36.625,8.157-56.554,10.725C337.077,331.253,343.694,320.564,350.019,309.618z M367.822,234.168
			c-5.561-11.144-11.514-22.231-17.803-33.124c-6.325-10.946-12.942-21.636-19.763-31.957c19.928,2.569,38.865,6.152,56.554,10.725
			C381.926,197.417,375.569,215.613,367.822,234.168z M256.002,104.283c12.82,13.044,25.399,27.65,37.58,43.626
			c-24.823-1.494-50.341-1.494-75.154,0C230.604,131.939,243.181,117.333,256.002,104.283z M136.823,48.914
			c23.027-13.292,63.398,3.197,106.515,43.074c-16.623,16.931-32.818,36.329-48.27,57.813c-26.341,2.652-51.241,6.972-74.193,12.897
			c-2.324-10.249-4.067-20.109-5.209-29.473c11.161-4.263,19.112-15.075,19.112-27.716c0-11.989-7.154-22.332-17.413-27.004
			C121,64.232,127.52,54.284,136.823,48.914z M93.105,105.509c0-6.623,5.388-12.011,12.011-12.011
			c6.623,0,12.011,5.389,12.011,12.011c0,6.622-5.388,12.011-12.011,12.011C98.493,117.52,93.105,112.132,93.105,105.509z
			 M17.65,255.336c0-26.581,34.464-53.299,90.558-70.712c6.332,22.798,15.031,46.525,25.929,70.711
			c-10.891,24.167-19.592,47.892-25.929,70.703C52.114,308.626,17.65,281.911,17.65,255.336z M210.945,467.727
			c-6.623,0-12.011-5.388-12.011-12.011s5.388-12.011,12.011-12.011s12.011,5.388,12.011,12.011S217.569,467.727,210.945,467.727z
			 M228.36,431.726c-4.894-3.562-10.91-5.67-17.413-5.67c-16.354,0-29.661,13.306-29.661,29.661c0,1.66,0.143,3.285,0.407,4.873
			c-14.008,5.531-31.274,9.006-44.867,1.16c-23.017-13.292-28.921-56.501-15.951-113.786c22.95,5.926,47.851,10.245,74.194,12.897
			c15.454,21.489,31.656,40.892,48.281,57.824C238.342,423.324,233.332,427.68,228.36,431.726z M256.001,406.379
			c-12.818-13.048-25.393-27.653-37.569-43.621c12.395,0.751,24.966,1.137,37.568,1.137c12.603,0,25.177-0.386,37.579-1.137
			C281.4,378.73,268.821,393.333,256.001,406.379z M375.176,461.749c-23.022,13.286-63.391-3.203-106.511-43.074
			c16.62-16.92,32.819-36.32,48.277-57.814c26.351-2.653,51.249-6.973,74.185-12.896C404.103,405.245,398.2,448.453,375.176,461.749
			z M472.204,315.707c-6.623,0-12.012-5.388-12.012-12.011s5.389-12.011,12.012-12.011c6.623,0,12.011,5.389,12.011,12.011
			C484.216,310.319,478.826,315.707,472.204,315.707z M486.47,277.7c-4.236-2.333-9.098-3.665-14.266-3.665
			c-16.356,0-29.662,13.307-29.662,29.661c0,2.373,0.288,4.68,0.818,6.894c-11.665,5.747-24.915,10.924-39.564,15.46
			c-6.337-22.832-15.035-46.56-25.922-70.715c10.885-24.16,19.582-47.889,25.918-70.711c56.092,17.413,90.558,44.132,90.558,70.712
			C494.35,262.823,491.696,270.318,486.47,277.7z"/>
	</g>
</g>
</svg>